<svg xmlns="http://www.w3.org/2000/svg" width="17.838" height="17.839" viewBox="0 0 17.838 17.839">
  <path id="home" d="M17.367,7.755l-2-2V.523A.523.523,0,0,0,14.848,0H12.609a.523.523,0,0,0-.523.523V2.474L10.094.482a1.647,1.647,0,0,0-2.329,0L.493,7.755a1.647,1.647,0,0,0,1.164,2.811,1.672,1.672,0,0,0,.272-.023v5.373a1.924,1.924,0,0,0,1.922,1.922h3.4a.523.523,0,0,0,.523-.523V13.361h2.314v3.956a.523.523,0,0,0,.523.523h3.4a1.924,1.924,0,0,0,1.922-1.922V10.544a1.666,1.666,0,0,0,.272.023h0a1.647,1.647,0,0,0,1.164-2.811Zm-4.236-6.71h1.194V4.714L13.131,3.52Zm.877,15.749H11.132V12.838a.523.523,0,0,0-.523-.523H7.25a.523.523,0,0,0-.523.523v3.956H3.851a.878.878,0,0,1-.877-.877V9.931L8.93,3.975l5.955,5.955v5.986a.878.878,0,0,1-.877.877Zm2.62-7.449a.6.6,0,0,1-.851,0h0L9.3,2.867a.523.523,0,0,0-.739,0L2.082,9.345h0a.6.6,0,0,1-.85-.851L8.5,1.221a.6.6,0,0,1,.851,0l2.884,2.884,4.389,4.389A.6.6,0,0,1,16.628,9.345Z" transform="translate(-0.011)" fill="#296972"/>
</svg>
