<svg xmlns="http://www.w3.org/2000/svg" width="16.385" height="14" viewBox="0 0 16.385 14">
  <g id="szkola-podstawowa-zajeziorze" transform="translate(0 -37.27)">
    <g id="Group_5" data-name="Group 5" transform="translate(0 37.27)">
      <g id="Group_4" data-name="Group 4" transform="translate(0 0)">
        <path id="Path_1" data-name="Path 1" d="M16.386,47.278a1.438,1.438,0,0,0-.96-1.352V40.953l.96-.4L8.193,37.27,0,40.557l8.193,3.287,6.273-2.506v4.588a1.432,1.432,0,0,0-.138,2.647l-.8,2.393.91.3.5-1.515.5,1.515.91-.3-.8-2.393A1.438,1.438,0,0,0,16.386,47.278Z" transform="translate(0 -37.27)" fill="#fff"/>
      </g>
    </g>
    <g id="Group_7" data-name="Group 7" transform="translate(3.872 43.144)">
      <g id="Group_6" data-name="Group 6">
        <path id="Path_2" data-name="Path 2" d="M125.32,222.555,121,220.82v1.253c0,1.368,1.857,2.4,4.32,2.4s4.32-1.032,4.32-2.4V220.82Z" transform="translate(-121 -220.82)" fill="#fff"/>
      </g>
    </g>
  </g>
</svg>
