<svg xmlns="http://www.w3.org/2000/svg" width="17.5" height="14" viewBox="0 0 17.5 14">
  <path id="mail_FILL1_wght400_GRAD0_opsz48" d="M81.313-786a1.259,1.259,0,0,1-.919-.394,1.259,1.259,0,0,1-.394-.919v-11.375a1.259,1.259,0,0,1,.394-.919,1.259,1.259,0,0,1,.919-.394H96.187a1.259,1.259,0,0,1,.919.394,1.259,1.259,0,0,1,.394.919v11.375a1.259,1.259,0,0,1-.394.919,1.259,1.259,0,0,1-.919.394Zm7.437-6.606,7.438-4.878v-1.2l-7.437,4.769-7.437-4.769v1.2Z" transform="translate(-80 800)" fill="#fff"/>
</svg>
