<svg xmlns="http://www.w3.org/2000/svg" width="14" height="14" viewBox="0 0 14 14">
  <path id="telefon" d="M133.125-826a10.489,10.489,0,0,1-4.715-1.167,16.008,16.008,0,0,1-4.21-3.033,16.01,16.01,0,0,1-3.033-4.21A10.489,10.489,0,0,1,120-839.125a.846.846,0,0,1,.253-.622.846.846,0,0,1,.622-.253H123.6a.688.688,0,0,1,.476.185.859.859,0,0,1,.262.5l.525,2.45a1.4,1.4,0,0,1-.01.5.75.75,0,0,1-.2.379L122.7-834.03a16.141,16.141,0,0,0,2.44,3.15,13.485,13.485,0,0,0,3.063,2.275l1.847-1.906a1.074,1.074,0,0,1,.447-.3.9.9,0,0,1,.506-.029l2.314.506a.828.828,0,0,1,.486.292.825.825,0,0,1,.194.544v2.625a.846.846,0,0,1-.253.622A.846.846,0,0,1,133.125-826Z" transform="translate(-120 840)" fill="#fff"/>
</svg>
